[img]http://img16.imageshack.us/img16/621/thegirlg.jpg[/img]
[code]
The Girl with the Dragon Tattoo 2011 CAM READNFO Xvid-26K

Imdb: 
http://www.imdb.com/title/tt1568346/

Plot:
Journalist Mikael Blomkvist is aided in his search for a woman who has been missing for forty years by Lisbeth Salander, a young computer hacker.

Sources:
RUSSIAN VIDEO THNXS
SIC AUDIO U ROCK MAN! THNXS

Notes:
why readnfo the video has 6 mins missing at the start so the audio had to be cut so the length of the audio and video matched up!
slight oos at some places but this was fixed! so enjoy and a big thnxs to a friend for the  support!


Greetz:
Xtreme Encode|FYA|ILLUMANTI|CM8|RX|VISION|HDSCENE|NIGHTMAREZ|xTriLL|DTRG|CRYS|REMIXHD|BIDA|RX|REFILL| INSPiRAL|SIC

Anything to offer email us @: 26k@hushmail.me

Video
ID                                       : 0
Format                                   : MPEG-4 Visual
Format profile                           : Advanced Simple@L5
Format settings, BVOP                    : 2
Format settings, QPel                    : No
Format settings, GMC                     : No warppoints
Format settings, Matrix                  : Default (H.263)
Codec ID                                 : XVID
Codec ID/Hint                            : XviD
Duration                                 : 2h 27mn
Bit rate                                 : 999 Kbps
Width                                    : 720 pixels
Height                                   : 344 pixels
Display aspect ratio                     : 2.093
Frame rate                               : 25.000 fps
Color space                              : YUV
Chroma subsampling                       : 4:2:0
Bit depth                                : 8 bits
Scan type                                : Progressive
Compression mode                         : Lossy
Bits/(Pixel*Frame)                       : 0.161
Stream size                              : 1.03 GiB (88%)
Writing library                          : XviD 63

Audio
ID                                       : 1
Format                                   : MPEG Audio
Format version                           : Version 1
Format profile                           : Layer 3
Mode                                     : Joint stereo
Mode extension                           : MS Stereo
Codec ID                                 : 55
Codec ID/Hint                            : MP3
Duration                                 : 2h 27mn
Bit rate mode                            : Constant
Bit rate                                 : 128 Kbps
Channel(s)                               : 2 channels
Sampling rate                            : 44.1 KHz
Compression mode                         : Lossy
Stream size                              : 135 MiB (11%)
Alignment                                : Aligned on interleaves
Interleave, duration                     : 40 ms (1.00 video frame)
Writing library                          : LAME3.98r
Encoding settings                        : -m j -V 4 -q 2 -lowpass 17 -b 128

[/code]
Screens:
[img]http://img855.imageshack.us/img855/354/vlcsnap2012010521h56m22.png[/img]
[img]http://img534.imageshack.us/img534/9131/vlcsnap2012010521h56m25.png[/img]
[img]http://img577.imageshack.us/img577/8015/vlcsnap2012010521h56m30.png[/img]
[img]http://img845.imageshack.us/img845/7669/vlcsnap2012010521h56m43.png[/img]
[img]http://img692.imageshack.us/img692/8882/vlcsnap2012010521h56m49.png[/img]

[img]http://img851.imageshack.us/img851/5503/26ks.jpg[/img]#
Thank you smallz for banner!